<svg class="svg-icon" style="width: 1em; height: 1em;vertical-align: middle;fill: currentColor;overflow: hidden;" viewBox="0 0 1024 1024" version="1.1" xmlns="http://www.w3.org/2000/svg"><path d="M512 102.4c226.090667 0 409.6 183.509333 409.6 409.6s-183.509333 409.6-409.6 409.6-409.6-183.509333-409.6-409.6 183.509333-409.6 409.6-409.6z m0 768c197.568 0 358.4-160.832 358.4-358.4s-160.832-358.4-358.4-358.4-358.4 160.832-358.4 358.4 160.832 358.4 358.4 358.4z m-4.266667-602.491733a25.147733 25.147733 0 0 1 25.147734 25.147733v208.725333l147.413333 143.6288 0.128 0.128a26.133333 26.133333 0 0 1 0.110933 37.064534 26.1632 26.1632 0 0 1-37.000533 0l-160.9472-160.942934v-228.608A25.147733 25.147733 0 0 1 507.733333 267.912533z"  /></svg>