<svg width="24" height="27" viewBox="0 0 24 27" fill="none" xmlns="http://www.w3.org/2000/svg">
<path d="M1 5.88889H3.44444H23" stroke="#A7A9AF" stroke-width="2" stroke-linecap="round" stroke-linejoin="round"/>
<path d="M7.111 5.88889V3.44444C7.111 2.79614 7.36854 2.17438 7.82696 1.71596C8.28539 1.25754 8.90714 1 9.55545 1H14.4443C15.0926 1 15.7144 1.25754 16.1728 1.71596C16.6312 2.17438 16.8888 2.79614 16.8888 3.44444V5.88889M20.5554 5.88889V23C20.5554 23.6483 20.2979 24.2701 19.8395 24.7285C19.3811 25.1869 18.7593 25.4444 18.111 25.4444H5.88878C5.24047 25.4444 4.61872 25.1869 4.1603 24.7285C3.70187 24.2701 3.44434 23.6483 3.44434 23V5.88889H20.5554Z" stroke="#A7A9AF" stroke-width="2" stroke-linecap="round" stroke-linejoin="round"/>
<path d="M9.55566 12V19.3333" stroke="#A7A9AF" stroke-width="2" stroke-linecap="round" stroke-linejoin="round"/>
<path d="M14.4443 12V19.3333" stroke="#A7A9AF" stroke-width="2" stroke-linecap="round" stroke-linejoin="round"/>
</svg>
