<svg width="26" height="26" viewBox="0 0 26 26" fill="none" xmlns="http://www.w3.org/2000/svg">
<path d="M19.1558 2.00271C19.4737 1.68481 19.8511 1.43264 20.2664 1.2606C20.6818 1.08855 21.1269 1 21.5765 1C22.0261 1 22.4713 1.08855 22.8866 1.2606C23.302 1.43264 23.6794 1.68481 23.9973 2.00271C24.3152 2.32061 24.5674 2.69802 24.7394 3.11337C24.9115 3.52873 25 3.9739 25 4.42348C25 4.87306 24.9115 5.31824 24.7394 5.73359C24.5674 6.14895 24.3152 6.52635 23.9973 6.84425L7.65711 23.1844L1 25L2.81558 18.3429L19.1558 2.00271Z" stroke="black" stroke-width="2" stroke-linecap="round" stroke-linejoin="round"/>
</svg>
