<svg width="208" height="160" viewBox="0 0 208 160" fill="none" xmlns="http://www.w3.org/2000/svg">
<g clip-path="url(#clip0_538:744)">
<path d="M13.7709 159.516H21.492V124.512H35.3043V117.975H0V124.512H13.8123L13.7709 159.516Z" fill="#57CEB9"/>
<path d="M46.6719 132.472V127.842H39.6V159.627H47.031V144.177C47.031 137.709 50.5946 134.379 56.23 134.379C56.81 134.383 57.3881 134.444 57.9566 134.559V127.483C52.6665 127.483 48.8128 129.114 46.6719 132.472Z" fill="#57CEB9"/>
<path d="M67.9981 122.619C68.6193 122.643 69.239 122.541 69.8192 122.318C70.3995 122.094 70.9281 121.755 71.3728 121.32C71.8175 120.886 72.169 120.365 72.4057 119.79C72.6424 119.215 72.7594 118.597 72.7496 117.975C72.7308 117.379 72.5913 116.792 72.3397 116.25C72.088 115.709 71.7295 115.224 71.2855 114.825C70.8415 114.426 70.3213 114.121 69.7563 113.929C69.1913 113.736 68.5932 113.66 67.9981 113.705C67.3923 113.671 66.7859 113.762 66.2161 113.97C65.6464 114.179 65.1251 114.502 64.6843 114.919C64.2435 115.336 63.8923 115.839 63.6523 116.397C63.4124 116.954 63.2886 117.555 63.2886 118.162C63.2886 118.769 63.4124 119.37 63.6523 119.927C63.8923 120.485 64.2435 120.988 64.6843 121.405C65.1251 121.822 65.6464 122.145 66.2161 122.354C66.7859 122.562 67.3923 122.652 67.9981 122.619ZM64.255 159.516H71.6722V127.732H64.255V159.516Z" fill="#57CEB9"/>
<path d="M99.2417 117.975H82.1282V159.516H89.8493V147.521H99.2417C110.167 147.521 116.935 141.869 116.935 132.721C116.935 123.572 110.167 117.975 99.2417 117.975ZM98.8825 141.04H89.8493V124.457H98.8825C105.651 124.457 109.159 127.483 109.159 132.748C109.159 138.013 105.651 141.04 98.8825 141.04Z" fill="#57CEB9"/>
<path d="M127.391 122.619C128.012 122.643 128.632 122.541 129.212 122.318C129.792 122.094 130.321 121.755 130.766 121.32C131.211 120.886 131.562 120.365 131.799 119.79C132.035 119.215 132.153 118.597 132.143 117.975C132.124 117.379 131.984 116.792 131.733 116.25C131.481 115.709 131.123 115.224 130.679 114.825C130.235 114.426 129.714 114.121 129.149 113.929C128.584 113.736 127.986 113.66 127.391 113.705C126.785 113.671 126.179 113.762 125.609 113.97C125.039 114.179 124.518 114.502 124.077 114.919C123.637 115.336 123.285 115.839 123.045 116.397C122.805 116.954 122.682 117.555 122.682 118.162C122.682 118.769 122.805 119.37 123.045 119.927C123.285 120.485 123.637 120.988 124.077 121.405C124.518 121.822 125.039 122.145 125.609 122.354C126.179 122.562 126.785 122.652 127.391 122.619ZM123.648 159.516H131.065V127.732H123.648V159.516Z" fill="#57CEB9"/>
<path d="M155.361 159.986C161.535 159.986 166.411 157.319 168.911 152.565L163.207 149.235C162.395 150.6 161.236 151.726 159.848 152.498C158.461 153.269 156.893 153.66 155.306 153.629C149.781 153.629 145.637 149.884 145.637 143.707C145.637 137.53 149.781 133.785 155.306 133.785C156.893 133.754 158.461 134.145 159.848 134.917C161.236 135.688 162.395 136.814 163.207 138.179L168.911 134.849C166.466 130.04 161.535 127.483 155.361 127.483C145.333 127.483 138.206 134.199 138.206 143.707C138.206 153.215 145.333 159.986 155.361 159.986Z" fill="#57CEB9"/>
<path d="M198.967 159.516H208L193.511 141.095L206.743 127.787H197.834L182.461 142.104V115.488H175.03V159.516H182.461V151.225L187.986 145.987L198.967 159.516Z" fill="#57CEB9"/>
<path d="M102.612 97.3294C102.07 97.3252 101.542 97.1618 101.093 96.8596C94.1247 92.0049 87.6728 86.4481 81.8382 80.2764C68.8684 66.5953 62.2937 53.1352 62.2937 40.2833C62.4893 29.7123 66.8238 19.6404 74.3649 12.2338C81.9061 4.8272 92.0514 0.677673 102.619 0.677673C113.186 0.677673 123.332 4.8272 130.873 12.2338C138.414 19.6404 142.748 29.7123 142.944 40.2833C142.944 53.1352 136.369 66.54 123.399 80.2764C117.565 86.4481 111.113 92.0049 104.145 96.8596C103.692 97.1644 103.158 97.3279 102.612 97.3294ZM102.612 5.47251C93.3853 5.47618 84.5376 9.14485 78.0134 15.6724C71.4892 22.1999 67.8223 31.052 67.8186 40.2833C67.8186 64.398 95.7057 86.1496 102.612 91.1798C109.518 86.1496 137.419 64.398 137.419 40.2833C137.401 31.0592 133.725 22.2192 127.2 15.7032C120.674 9.18727 111.831 5.52774 102.612 5.52776V5.47251Z" fill="#57CEB9"/>
<path d="M102.612 58.124C99.6533 58.124 96.7611 57.2462 94.3012 55.6017C91.8412 53.9572 89.9239 51.6198 88.7917 48.885C87.6595 46.1503 87.3633 43.1411 87.9405 40.2379C88.5177 37.3347 89.9424 34.668 92.0344 32.5749C94.1264 30.4818 96.7918 29.0564 99.6935 28.4789C102.595 27.9015 105.603 28.1978 108.336 29.3306C111.07 30.4633 113.406 32.3817 115.05 34.8429C116.693 37.3041 117.571 40.1976 117.571 43.1576C117.567 47.1258 115.99 50.9304 113.185 53.7364C110.381 56.5423 106.578 58.1203 102.612 58.124ZM102.612 33.7605C100.745 33.7605 98.9209 34.3144 97.3692 35.3521C95.8175 36.3899 94.6084 37.8648 93.8948 39.5903C93.1812 41.3158 92.9952 43.2143 93.3603 45.0456C93.7255 46.8769 94.6253 48.5587 95.946 49.8781C97.2667 51.1976 98.9489 52.0954 100.78 52.458C102.611 52.8206 104.508 52.6318 106.232 51.9153C107.955 51.1987 109.428 49.9868 110.462 48.4328C111.497 46.8789 112.048 45.0527 112.046 43.1853C112.042 40.6844 111.046 38.2873 109.278 36.5202C107.509 34.7531 105.111 33.7605 102.612 33.7605Z" fill="#57CEB9"/>
</g>
<defs>
<clipPath id="clip0_538:744">
<rect width="208" height="160" fill="white"/>
</clipPath>
</defs>
</svg>
