<svg width="189" height="38" viewBox="0 0 189 38" fill="none" xmlns="http://www.w3.org/2000/svg">
<g clip-path="url(#clip0_538:859)">
<path d="M48.03 35.9201H53.6201V10.5501H63.6201V5.86011H38.0601V10.5901H48.0601L48.03 35.9201Z" fill="#57CEB9"/>
<path d="M71.85 16.3101V12.9501H66.73V35.9501H72.11V24.78C72.11 20.09 74.69 17.6801 78.77 17.6801C79.1896 17.6878 79.6077 17.7313 80.02 17.8101V12.7001C76.19 12.7001 73.41 13.8601 71.85 16.3101Z" fill="#57CEB9"/>
<path d="M87.29 9.17006C87.7393 9.18919 88.1877 9.1163 88.6077 8.95589C89.0278 8.79547 89.4107 8.5509 89.7328 8.2372C90.0549 7.92349 90.3095 7.54727 90.481 7.13161C90.6525 6.71595 90.7373 6.26967 90.73 5.82008C90.7177 5.38735 90.6178 4.96159 90.4362 4.56862C90.2546 4.17564 89.9951 3.82357 89.6735 3.53377C89.3519 3.24396 88.9749 3.02245 88.5652 2.88258C88.1555 2.74271 87.7217 2.6874 87.29 2.72005C86.8514 2.69561 86.4124 2.76091 85.9999 2.91194C85.5874 3.06297 85.21 3.29659 84.8909 3.59846C84.5717 3.90033 84.3175 4.26413 84.1437 4.66762C83.97 5.0711 83.8804 5.50578 83.8804 5.94508C83.8804 6.38438 83.97 6.81907 84.1437 7.22255C84.3175 7.62603 84.5717 7.98983 84.8909 8.2917C85.21 8.59357 85.5874 8.82713 85.9999 8.97816C86.4124 9.1292 86.8514 9.19449 87.29 9.17006ZM84.58 35.9201H89.95V12.9201H84.58V35.9201Z" fill="#57CEB9"/>
<path d="M109.91 5.86011H97.52V35.9601H103.11V27.2701H109.91C117.82 27.2701 122.72 23.1901 122.72 16.5601C122.72 9.93012 117.82 5.86011 109.91 5.86011ZM109.65 22.5401H103.11V10.5501H109.65C114.55 10.5501 117.09 12.7401 117.09 16.5501C117.09 20.3601 114.55 22.5001 109.65 22.5001V22.5401Z" fill="#57CEB9"/>
<path d="M130.29 9.17006C130.739 9.18919 131.188 9.1163 131.608 8.95589C132.028 8.79547 132.411 8.5509 132.733 8.2372C133.055 7.92349 133.31 7.54727 133.481 7.13161C133.653 6.71595 133.737 6.26967 133.73 5.82008C133.718 5.38735 133.618 4.96159 133.436 4.56862C133.255 4.17564 132.995 3.82357 132.674 3.53377C132.352 3.24396 131.975 3.02245 131.565 2.88258C131.155 2.74271 130.722 2.6874 130.29 2.72005C129.851 2.69561 129.412 2.76091 129 2.91194C128.587 3.06297 128.21 3.29659 127.891 3.59846C127.572 3.90033 127.317 4.26413 127.144 4.66762C126.97 5.0711 126.88 5.50578 126.88 5.94508C126.88 6.38438 126.97 6.81907 127.144 7.22255C127.317 7.62603 127.572 7.98983 127.891 8.2917C128.21 8.59357 128.587 8.82713 129 8.97816C129.412 9.1292 129.851 9.19449 130.29 9.17006ZM127.58 35.9201H132.95V12.9201H127.58V35.9201Z" fill="#57CEB9"/>
<path d="M150.54 36.22C155.02 36.22 158.54 34.28 160.35 30.84L156.22 28.4301C155.634 29.4205 154.796 30.2376 153.791 30.7981C152.786 31.3586 151.651 31.6422 150.5 31.6201C146.5 31.6201 143.5 28.9101 143.5 24.4401C143.5 19.9701 146.5 17.2501 150.5 17.2501C151.651 17.2279 152.786 17.5115 153.791 18.072C154.796 18.6324 155.634 19.4496 156.22 20.4401L160.35 18.03C158.58 14.55 155.02 12.7001 150.54 12.7001C143.28 12.7001 138.12 17.5601 138.12 24.4401C138.12 31.3201 143.28 36.22 150.54 36.22Z" fill="#57CEB9"/>
<path d="M182.11 35.9201H188.65L178.16 22.5901L187.75 12.9501H181.3L170.16 23.2701V4.01013H164.78V35.9201H170.16V29.8601L174.16 26.0801L182.11 35.9201Z" fill="#57CEB9"/>
<path d="M29.34 15.54C29.34 26.27 15.55 35.47 15.55 35.47C15.55 35.47 1.75 26.27 1.75 15.54C1.84678 11.9456 3.34262 8.53096 5.91913 6.02289C8.49564 3.51482 11.9493 2.11145 15.545 2.11145C19.1406 2.11145 22.5943 3.51482 25.1708 6.02289C27.7473 8.53096 29.2432 11.9456 29.34 15.54V15.54Z" stroke="#57CEB9" stroke-width="3.8" stroke-linecap="round" stroke-linejoin="round"/>
<path d="M15.5502 20.14C16.46 20.14 17.3494 19.8701 18.1058 19.3647C18.8623 18.8592 19.4519 18.1408 19.8 17.3003C20.1482 16.4598 20.2393 15.5348 20.0618 14.6425C19.8843 13.7502 19.4462 12.9306 18.8029 12.2872C18.1596 11.6439 17.3399 11.2058 16.4476 11.0283C15.5553 10.8508 14.6304 10.9419 13.7899 11.2901C12.9493 11.6383 12.2309 12.2279 11.7255 12.9843C11.22 13.7408 10.9502 14.6301 10.9502 15.5399C10.9502 16.7599 11.4349 17.9299 12.2975 18.7926C13.1602 19.6553 14.3302 20.14 15.5502 20.14Z" stroke="#57CEB9" stroke-width="3.8" stroke-linecap="round" stroke-linejoin="round"/>
</g>
<defs>
<clipPath id="clip0_538:859">
<rect width="188.65" height="37.22" fill="white"/>
</clipPath>
</defs>
</svg>
