<svg width="12" height="12" viewBox="0 0 12 12" fill="none" xmlns="http://www.w3.org/2000/svg">
<path d="M6.68841 5.99713L11.8576 0.825916C11.9488 0.734325 12 0.610346 11.9999 0.481135C11.9998 0.351924 11.9485 0.228014 11.8572 0.136543C11.6744 -0.0452086 11.3525 -0.0461264 11.1679 0.137462L6 5.30868L0.83032 0.136085C0.646623 -0.0452086 0.324695 -0.0442907 0.141917 0.137002C0.0965491 0.182162 0.0606354 0.2359 0.0362713 0.29508C0.0119072 0.35426 -0.000419346 0.417697 1.08859e-05 0.481689C1.08859e-05 0.612036 0.0505275 0.734122 0.141917 0.824539L5.31114 5.99667L0.142376 11.1693C0.0511637 11.261 8.39248e-05 11.3851 0.000342208 11.5145C0.000600491 11.6438 0.0521759 11.7677 0.143754 11.8591C0.232387 11.9468 0.35776 11.9972 0.487266 11.9972H0.490022C0.619987 11.9968 0.74536 11.9458 0.832157 11.8573L6 6.68604L11.1697 11.8586C11.2611 11.9495 11.3832 12 11.5127 12C11.5768 12.0002 11.6402 11.9877 11.6994 11.9633C11.7586 11.9389 11.8124 11.903 11.8577 11.8578C11.903 11.8125 11.9389 11.7588 11.9633 11.6996C11.9877 11.6404 12.0002 11.577 12 11.513C12 11.3831 11.9495 11.2606 11.8576 11.1702L6.68841 5.99713Z" fill="white"/>
</svg>
